PathFileType	4	(X/Y/Z)	E:\Qualisys_Data\Carbon_Farble_Plate\Data\Amateur_Runner\S14\T3\S14T3V22_c3d.trc
DataRate	CameraRate	NumFrames	NumMarkers	Units	OrigDataRate	OrigDataStartFrame	OrigNumFrames
200.000000	200.000000	4	39	mm	200.000000	188	302
Frame#	Time	LSHO			RSHO			LICST			RICST			LASIS			LHEEL			RASIS			LTROC			RTROC			SACR			LTH1			LSK4			LTH2			LTH3			RHM5			LSK2			LTH4			RTH1			LTOE			RTH2			RTH3			RTH4			LLEP			RLEP			LSK1			LSK3			RSK1			LHM5			RSK2			LFT1			RSK3			RSK4			LLME			RLME			RTOE			RHEEL			RFT1			RFT2			LFT2			
		X1	Y1	Z1	X2	Y2	Z2	X3	Y3	Z3	X4	Y4	Z4	X5	Y5	Z5	X6	Y6	Z6	X7	Y7	Z7	X8	Y8	Z8	X9	Y9	Z9	X10	Y10	Z10	X11	Y11	Z11	X12	Y12	Z12	X13	Y13	Z13	X14	Y14	Z14	X15	Y15	Z15	X16	Y16	Z16	X17	Y17	Z17	X18	Y18	Z18	X19	Y19	Z19	X20	Y20	Z20	X21	Y21	Z21	X22	Y22	Z22	X23	Y23	Z23	X24	Y24	Z24	X25	Y25	Z25	X26	Y26	Z26	X27	Y27	Z27	X28	Y28	Z28	X29	Y29	Z29	X30	Y30	Z30	X31	Y31	Z31	X32	Y32	Z32	X33	Y33	Z33	X34	Y34	Z34	X35	Y35	Z35	X36	Y36	Z36	X37	Y37	Z37	X38	Y38	Z38	X39	Y39	Z39	

189	0.94	793.5403442382812	1397.375610351562	-550.7978515625	840.0100708007812	1387.078857421875	-247.3612518310547	773.58837890625	941.2056884765624	-527.918212890625	785.5093994140625	957.683349609375	-247.6378021240234	820.0847778320312	894.4725341796875	-501.1461791992188	576.1519775390625	403.5883178710938	-432.0145568847656	813.943359375	918.1787719726562	-263.8824462890625	697.0633544921875	818.080810546875	-547.14453125	665.5968627929688	842.737548828125	-220.7799072265625	640.3820190429688	947.9812622070312	-399.2261657714844	892.14599609375	661.0626831054688	-554.5162963867188	765.4592895507812	469.5447998046875	-510.3645324707031	834.0551147460938	614.3455200195312	-527.1506958007812	961.3388061523438	588.9430541992188	-537.8780517578125	574.6995239257812	55.25439071655273	-239.8633422851562	851.5111083984375	512.517333984375	-532.19091796875	899.2896118164062	542.2721557617188	-515.6273193359375	788.8456420898438	614.3388061523438	-212.0700531005859	687.026611328125	164.9723052978516	-442.0865478515625	710.5411376953125	623.53466796875	-209.7773590087891	784.0775146484375	518.3630981445312	-242.1317443847656	700.2642822265625	523.6144409179688	-233.1478729248047	939.88330078125	518.4948120117188	-536.1766357421875	720.2620239257812	453.2901000976562	-233.931396484375	890.6448364257812	439.7568359375	-523.0101318359375	800.4475708007812	396.970947265625	-503.4489135742188	680.517822265625	331.2447814941406	-241.0444793701172	645.91064453125	218.8286895751953	-505.7705993652344	608.1346435546875	376.9805908203125	-234.6099853515625	552.9329223632812	380.3218383789062	-404.1407470703125	618.032958984375	250.0679168701172	-259.2704467773438	556.143310546875	297.7752380371094	-249.955078125	630.033447265625	363.0438232421875	-486.3729248046875	477.2063598632812	144.11572265625	-276.1276245117188	645.7075805664062	48.39954376220703	-309.4931030273438	406.1238403320312	128.8383331298828	-330.5049743652344	410.253662109375	97.7406005859375	-357.5965270996094	398.2607421875	110.4812850952148	-306.1536560058594	551.5017700195312	386.9821472167969	-458.9710388183594
190	0.945	810.5345458984375	1402.34228515625	-552.0509033203125	861.7604370117188	1392.10693359375	-249.9815673828125	791.7412719726562	946.1494140625	-529.2745971679688	807.2455444335938	961.9215087890624	-248.703125	840.4285278320312	899.2684936523438	-502.1973266601562	605.65478515625	391.7113342285156	-434.5635986328125	834.89794921875	921.5316162109376	-265.1033630371094	718.0368041992188	823.6951904296875	-549.3267211914062	686.0936279296875	846.9324340820312	-221.1888427734375	660.7300415039062	951.9927368164062	-399.8848571777344	914.8787841796876	667.54443359375	-554.4877319335938	792.3071899414062	467.1773681640625	-511.0355834960938	857.5662231445312	620.2521362304688	-528.3097534179688	985.0653076171876	596.541015625	-536.7688598632812	576.0003051757812	55.79719543457031	-239.4095001220703	877.115478515625	513.459716796875	-532.8342895507812	923.225341796875	549.087646484375	-515.78955078125	803.2708740234375	617.0072021484375	-214.1591033935547	729.5249633789062	159.7893218994141	-441.30712890625	725.249267578125	628.1295166015625	-210.5603790283203	794.9111938476562	520.8092651367188	-244.7158203125	711.7553100585938	528.5491943359375	-234.2031555175781	965.2203979492188	524.3992309570312	-535.8985595703125	730.0462646484375	457.6329650878906	-234.9260864257812	919.430419921875	442.7859802246094	-522.4466552734375	830.6410522460938	396.5059814453125	-503.8082885742188	687.8106689453125	335.706298828125	-241.6798248291016	686.2503051757812	210.6177825927734	-506.0723876953125	616.3536376953125	382.5580444335938	-234.7922515869141	583.7168579101562	367.9668579101562	-407.4834289550781	624.40234375	255.3169860839844	-258.8634643554688	562.8563842773438	303.9002075195312	-249.7273406982422	661.8628540039062	353.5703735351562	-487.7330932617188	482.5507202148438	150.2955627441406	-275.3450622558594	646.6640014648438	48.26599502563477	-308.9946594238281	410.9985046386719	136.2451934814453	-329.8395690917969	414.8593139648438	105.7876281738281	-356.2200622558594	402.4371643066406	118.0548324584961	-305.2749938964844	581.9963989257812	373.6122741699219	-461.9966430664062
191	0.95	827.5338134765625	1406.916625976562	-553.0169067382812	883.1649169921875	1396.900024414062	-252.6737213134766	815.0333251953125	950.8441772460938	-528.8121948242188	829.1443481445312	966.2445678710938	-250.1357727050781	860.406982421875	904.12255859375	-503.076904296875	635.4258422851562	379.9160766601562	-437.1661987304688	856.2433471679688	925.0642700195312	-266.5520324707031	739.3150634765625	829.1541137695312	-551.3836669921875	707.0704956054688	851.51611328125	-221.5688934326172	681.4154052734375	956.1646728515624	-400.3035583496094	937.966064453125	674.3370971679688	-554.2194213867188	819.2445678710938	464.5777282714844	-512.1376953125	880.5963134765625	626.3470458984375	-529.2164916992188	1008.345092773438	604.228759765625	-536.2584838867188	578.5363159179688	56.54751586914062	-238.5430297851562	902.2913818359376	514.7698974609375	-532.4244384765625	946.9755859375	555.67333984375	-516.178955078125	818.117919921875	619.8682250976562	-216.4966888427734	771.9613037109375	154.9850158691406	-440.6766052246094	740.29052734375	633.2542724609375	-212.080322265625	806.585205078125	523.6244506835938	-247.0151977539062	724.1356811523438	533.8068237304688	-234.6376037597656	990.2571411132812	530.6077270507812	-535.5439453125	740.1680297851562	462.2145690917969	-236.0144500732422	946.9862670898438	446.3514404296875	-522.9493408203125	860.8595581054688	395.5300903320312	-504.7090148925781	695.4005126953125	340.7858581542969	-241.7122039794922	726.1099853515625	202.7465209960938	-506.3756408691406	624.662841796875	388.6130676269531	-235.2304077148438	615.02294921875	355.2244873046875	-410.6433715820312	631.2581176757812	260.6261901855469	-258.2688293457031	570.4354858398438	310.1137084960938	-249.1246337890625	694.3294067382812	344.5461730957031	-489.6330261230469	488.5513916015625	156.2714385986328	-274.262451171875	647.5015258789062	47.68993377685547	-308.3628540039062	417.0069580078125	144.8861999511719	-328.6778564453125	419.7063598632812	114.0223693847656	-355.6996154785156	409.1455078125	126.257438659668	-304.4780883789062	613.2990112304688	360.5692749023438	-464.770751953125
192	0.955	844.7369995117188	1411.989624023438	-554.3616333007812	904.4373168945312	1401.985717773438	-255.2319641113281	834.247802734375	955.9976806640624	-530.5501708984375	851.558837890625	970.1107788085938	-252.2518768310547	881.198486328125	909.20068359375	-504.5796203613281	665.6316528320312	368.0223083496094	-439.9735107421875	877.6732177734375	928.7149658203124	-268.2669067382812	760.679443359375	834.9177856445312	-553.6917724609375	728.070068359375	855.9169921875	-221.9708862304688	702.4658203125	960.5281982421876	-400.9002075195312	960.4987182617188	680.8317260742188	-554.2621459960938	846.2918701171875	461.4233093261719	-513.4010620117188	903.4581298828124	632.271728515625	-530.8125610351562	1031.33740234375	610.8739013671875	-535.4467163085938	580.5459594726562	57.56840896606445	-237.5996398925781	927.4592895507812	515.8594970703125	-532.7902221679688	970.6597290039062	562.1515502929688	-516.2653198242188	832.9849243164062	623.14306640625	-218.7082672119141	814.2069091796875	150.356201171875	-439.9577941894531	755.5611572265625	637.8741455078125	-213.3685302734375	818.9859619140625	526.40478515625	-249.2482757568359	736.9264526367188	539.2858276367188	-235.0316314697266	1014.789978027344	536.9472045898438	-536.7295532226562	751.0628051757812	467.5932312011719	-236.4157257080078	975.7591552734376	449.4800415039062	-523.2714233398438	891.2661743164062	394.7421264648438	-505.1913452148438	703.8665161132812	346.6185607910156	-241.1651916503906	766.4912109375	195.0881958007812	-506.4869689941406	633.4069213867188	394.6183776855469	-235.28125	646.377197265625	342.4022827148438	-413.97412109375	638.4447021484375	266.8345947265625	-257.8465576171875	578.4535522460938	317.3802795410156	-248.7490844726562	727.1256103515625	334.8560791015625	-491.0597839355469	494.7453308105469	162.9403839111328	-273.1204223632812	649.6417846679688	47.52228546142578	-307.0014038085938	423.8220825195312	153.7362518310547	-327.4805297851562	425.660400390625	122.9686508178711	-354.7171936035156	415.3515319824219	135.1826019287109	-303.5528869628906	645.16455078125	347.0821838378906	-467.3216857910156
